<svg xmlns="http://www.w3.org/2000/svg" version="1.1" xmlns:xlink="http://www.w3.org/1999/xlink" xmlns:svgjs="http://svgjs.dev/svgjs" width="1000" height="1125" viewBox="0 0 1000 1125"><g transform="matrix(1,0,0,1,1.7053025658242404e-13,0)"><svg viewBox="0 0 320 360" data-background-color="#ffffff" preserveAspectRatio="xMidYMid meet" height="1125" width="1000" xmlns="http://www.w3.org/2000/svg" xmlns:xlink="http://www.w3.org/1999/xlink"><g id="tight-bounds" transform="matrix(1,0,0,1,0,0)"><svg viewBox="0 0 320 360" height="360" width="320"><g><svg></svg></g><g><svg viewBox="0 0 320 360" height="360" width="320"><g><path xmlns="http://www.w3.org/2000/svg" d="M20.961 227.22l3.726 4.658-1.863-6.056c-0.466-2.795-3.726 0.466-1.863 1.398M25.153 224.425c1.397 2.329 2.795 4.658 2.795 6.987 0 3.261 2.795 4.658 5.123 5.589-3.261-3.726-5.124-13.974-7.918-12.576M204.017 26.929c7.918 0 15.371-0.932 23.756 0.931 20.495 5.124 37.729 15.371 49.374 29.811l32.606 52.169c1.397 13.042 4.192 27.482 3.726 43.319 3.261 0 2.795-4.658 6.521-5.59-3.726 9.316-5.59 20.961-6.521 34.469-2.329-7.453 0-18.632 0.466-24.687-3.261 5.124-5.124 1.397-5.124-0.932 0.466-3.726-1.397-3.261-2.795-4.658-5.124-4.658-8.384-9.782-12.11-17.7 2.329-6.055 2.795-14.905-4.658-19.563-2.329-1.397-5.124-3.726-6.521-7.453-1.863-5.124-5.124-11.179-4.193-19.097 0.466-2.329-6.987 5.124-11.179 1.863-18.166-12.576-36.332-27.016-58.224-39.127-11.645 0-20.029-4.192-24.221-9.316-3.726-4.658-0.932-10.713 4.658-11.179 3.261 0 6.987-0.932 9.782 0.932 0.466-1.863 2.329-4.192 4.657-4.192M157.904 16.215l0.932 0.466c4.658 0.932 6.987 7.453 12.11 5.124 0 3.261 0.466 6.521-0.466 8.85-1.397 3.726-5.59 3.726-8.85 3.726-31.208-1.863-49.374 11.179-68.471 22.358-5.124 3.261-10.713 5.59-14.906 9.782-20.029 18.632-41.921 35.866-47.045 70.335l-4.192 38.195c-0.466 4.192-5.124 8.384-4.192 13.508l3.26 22.824c-3.261-3.261-5.124 0.932-4.192 2.795 0.466 1.397 2.329 6.055 5.124 1.863 3.726 6.987 7.453 20.495 12.576 26.55 15.837 18.632 36.332 35.4 53.101 52.169 4.192-0.932 7.453-0.932 8.384-3.727 1.397 2.795-1.397 5.59-3.726 6.056 7.453 4.658 15.837 8.85 27.016 9.781 14.44 0.932 27.948 3.261 40.524 6.522 6.521-1.863 13.042-2.795 20.029-3.261 2.329 0 3.726-3.726 6.521-4.658l0.466-4.658c2.795 4.192 2.329-1.397 0.466-4.192 3.261 2.795 4.192 5.124 5.589 6.987 0-1.397 3.726-6.521 3.727-0.466l0.931-6.055c1.397-0.932 1.863 5.124 3.261 0.931 1.397-4.192 4.192-0.932 6.987-2.329-0.932 1.863-0.466 5.59 2.794 3.261l3.727-3.261c2.329 5.59 6.055 3.261 7.918 2.329 20.495-13.042 40.99-28.413 60.553-43.784l-0.466 6.055 2.329-7.453c2.329 2.329 4.192 0.466 5.124-0.931 2.795-4.658 6.521-9.316 12.577-13.508-7.453 20.029-16.303 35.866-27.482 48.908l-4.658 5.59c0 3.261-0.932 7.453-4.658 7.918-1.863 0.466-5.59-0.932-8.384 1.863-1.397 1.863 3.261 5.59-0.466 2.795-3.261-2.329-6.521 0-10.248 0.932-2.795 0.932 1.863 3.726 2.795 5.589 0.932 1.863 1.863 3.726 1.398 6.056l-5.124-5.59c-6.055 3.261-9.782 9.316-14.906 13.974-2.329 1.863-1.397 5.124-1.397 7.918-3.261 0-6.987-0.932-8.85 0.932-1.397 1.863-0.932 4.658-0.932 7.453-4.658-0.466-5.124-7.453-9.315-6.056-4.192 0.932-8.85 1.397-12.577 3.727 2.795 5.59-4.658 2.329-3.726 3.26-6.987-4.192-13.042-7.453-20.495-4.658-15.837-5.124-35.4-2.795-49.84-0.931 0-2.329 0.466-4.658-0.466-5.124-0.932 2.329-3.726 1.397-3.26 1.397-8.85-6.055-17.7-9.782-27.016-14.905-8.384 0.932-16.303-3.261-18.632-5.59-6.521-6.055-13.974-2.795-20.029-4.192-13.042-3.261-17.7-16.769-19.098-26.084-0.932-4.658-4.658-6.521-6.055-6.056-6.055-19.563-15.371-37.263-22.824-55.429-1.863-4.658-1.397-9.316-1.397-14.44 2.329 0.932 4.658 0.466 4.192-2.794-2.329-15.371-7.918-27.016-13.974-38.195 3.261-15.837 3.726-34.469 11.179-48.443 6.521-12.576 18.632-19.098 27.016-29.811 2.795-3.726 2.795-8.85 5.59-12.11 9.316-9.316 18.632-19.098 28.879-27.482 4.658-3.726 10.247 0 17.234-1.397 2.329-8.384 11.645-15.837 20.495-13.508 3.726 0.932 11.179-8.85 13.508-9.782 3.726-1.397 1.863 3.726 1.863 6.987 8.85-6.987 20.961-10.713 32.14-14.906" fill="#ed1703" fill-rule="nonzero" stroke="none" stroke-width="1" stroke-linecap="butt" stroke-linejoin="miter" stroke-miterlimit="10" stroke-dasharray="" stroke-dashoffset="0" font-family="none" font-weight="none" font-size="none" text-anchor="none" style="mix-blend-mode: normal" data-fill-palette-color="tertiary"></path></g><g transform="matrix(1,0,0,1,64,126.53524373631956)"><svg viewBox="0 0 192 106.92951252736088" height="106.92951252736088" width="192"><g><svg viewBox="0 0 192 106.92951252736088" height="106.92951252736088" width="192"><g><svg viewBox="0 0 192 106.92951252736088" height="106.92951252736088" width="192"><g transform="matrix(1,0,0,1,0,63.715183071067614)"><svg viewBox="0 0 192 43.21432945629327" height="43.21432945629327" width="192"><g><svg viewBox="0 0 192 43.21432945629327" height="43.21432945629327" width="192"><g><svg viewBox="0 0 192 27.363420427553447" height="27.363420427553447" width="192"><g transform="matrix(1,0,0,1,0,0)"><svg width="192" viewBox="2.8299999237060547 -40.5 287.7799987792969 41.0099983215332" height="27.363420427553447" data-palette-color="#ed1703"><path d="M16.92 0L16.92-31.37 2.83-31.37 2.83-38.16 38.75-38.16 38.75-31.37 24.66-31.37 24.66 0 16.92 0ZM46.09 0L46.09-40.48 53.32-40.48 53.32-26.61Q55.59-27.86 58.38-28.59 61.18-29.32 64.26-29.32L64.26-29.32Q67.82-29.32 70.66-28.27 73.51-27.22 75.49-25.26 77.46-23.29 78.53-20.48 79.59-17.68 79.59-14.16L79.59-14.16 79.59 0 72.39 0 72.39-13.87Q72.39-15.92 71.73-17.61 71.07-19.31 69.8-20.53 68.53-21.75 66.71-22.42 64.89-23.1 62.6-23.1L62.6-23.1Q59.84-23.1 57.47-22.22 55.1-21.34 53.32-20L53.32-20 53.32 0 46.09 0ZM87.67-13.75L87.67-28.83 94.87-28.83 94.87-14.77Q94.87-12.77 95.31-11.12 95.75-9.47 96.81-8.3 97.87-7.13 99.64-6.48 101.41-5.83 104.05-5.83L104.05-5.83Q105.29-5.83 106.57-6.1 107.86-6.37 109.03-6.85 110.2-7.32 111.21-7.98 112.23-8.64 112.96-9.42L112.96-9.42 112.96-28.83 120.19-28.83 120.19 0 112.96 0 112.96-2.47Q110.3-0.88 107.61-0.2 104.93 0.49 102.51 0.49L102.51 0.49Q98.55 0.49 95.73-0.46 92.91-1.42 91.12-3.23 89.33-5.05 88.5-7.7 87.67-10.35 87.67-13.75L87.67-13.75ZM129.56 0L129.56-28.81 136.78-28.81 136.78-26.37Q139.49-28.03 142.07-28.67 144.65-29.32 147.11-29.32L147.11-29.32Q150.55-29.32 153.43-28.22 156.32-27.12 158.37-24.9L158.37-24.9Q159.95-26.12 161.49-26.97 163.03-27.81 164.57-28.33 166.11-28.86 167.69-29.09 169.28-29.32 170.96-29.32L170.96-29.32Q174.5-29.32 177.39-28.36 180.27-27.39 182.3-25.49 184.34-23.58 185.45-20.74 186.56-17.9 186.56-14.16L186.56-14.16 186.56 0 179.36 0 179.36-12.99Q179.36-15.36 178.69-17.22 178.02-19.09 176.81-20.37 175.6-21.66 173.93-22.33 172.26-23 170.26-23L170.26-23Q169.16-23 168.01-22.79 166.86-22.58 165.78-22.14 164.69-21.7 163.74-21.03 162.79-20.36 162.08-19.46L162.08-19.46 162.08 0 154.88 0 154.88-12.99Q154.88-15.36 154.2-17.22 153.53-19.09 152.32-20.37 151.12-21.66 149.42-22.33 147.72-23 145.7-23L145.7-23Q144.45-23 143.19-22.74 141.94-22.49 140.78-22.02 139.62-21.56 138.6-20.9 137.59-20.24 136.78-19.41L136.78-19.41 136.78 0 129.56 0ZM195.45 0L195.45-40.5 202.68-40.5 202.68-26.1Q203.63-26.76 204.92-27.34 206.22-27.93 207.7-28.37 209.19-28.81 210.78-29.06 212.37-29.32 213.95-29.32L213.95-29.32Q217.62-29.32 220.68-28.25 223.74-27.17 225.94-25.22 228.14-23.27 229.37-20.54 230.61-17.82 230.61-14.53L230.61-14.53Q230.61-11.08 229.31-8.31 228.02-5.54 225.73-3.58 223.45-1.61 220.31-0.55 217.18 0.51 213.52 0.51L213.52 0.51Q211.95 0.51 210.43 0.32 208.9 0.12 207.5-0.22 206.09-0.56 204.86-1.04 203.63-1.51 202.68-2.08L202.68-2.08 202.68 0 195.45 0ZM202.68-19.04L202.68-9.06Q203.77-8.18 204.99-7.57 206.22-6.96 207.49-6.57 208.75-6.18 210.05-5.99 211.34-5.81 212.56-5.81L212.56-5.81Q215.05-5.81 216.99-6.48 218.94-7.15 220.27-8.33 221.6-9.5 222.3-11.08 223.01-12.67 223.01-14.53L223.01-14.53Q223.01-16.26 222.32-17.8 221.62-19.34 220.31-20.5 219.01-21.66 217.17-22.33 215.32-23 213.03-23L213.03-23Q211.56-23 210.1-22.72 208.63-22.44 207.28-21.92 205.92-21.41 204.74-20.68 203.55-19.95 202.68-19.04L202.68-19.04ZM233.29 0L251.21-38.16 259.41-38.16 277.87 0 269.74 0 266.69-6.42 244.4-6.42 241.44 0 233.29 0ZM247.35-12.79L263.63-12.79 255.38-30.13 247.35-12.79ZM282.82 0L282.82-38.16 290.61-38.16 290.61 0 282.82 0Z" opacity="1" transform="matrix(1,0,0,1,0,0)" fill="#ed1703" class="undefined-text-0" data-fill-palette-color="primary" id="text-0"></path></svg></g></svg></g><g transform="matrix(1,0,0,1,0,31.356400190023756)"><svg viewBox="0 0 192 11.857929266269515" height="11.857929266269515" width="192"><g transform="matrix(1,0,0,1,0,0)"><svg width="192" viewBox="1.2000000476837158 -40.5 662.989990234375 40.95000076293945" height="11.857929266269515" data-palette-color="#ed1703"><path d="M18.6-15.15L18.6-2Q18.6 0.4 15.65 0.4L15.65 0.4Q12.7 0.4 12.7-2L12.7-2 12.7-15.3 1.5-36.6Q1.2-37.25 1.2-37.95L1.2-37.95Q1.2-39.4 2.9-40.1L2.9-40.1 2.85-40.1Q3.95-40.5 4.6-40.5L4.6-40.5Q5.9-40.5 6.6-39.2L6.6-39.2 15.7-22.1Q16.7-24 17.85-26.18 19-28.35 20.18-30.6 21.35-32.85 22.5-35.05 23.65-37.25 24.7-39.2L24.7-39.2Q25.1-39.8 25.58-40.15 26.05-40.5 26.75-40.5L26.75-40.5Q27.45-40.5 28.4-40.1L28.4-40.1 28.35-40.1Q30.1-39.35 30.1-37.9L30.1-37.9Q30.1-37.6 30.05-37.27 30-36.95 29.8-36.6L29.8-36.6Q29.35-35.7 28.68-34.4 28-33.1 26.78-30.78 25.55-28.45 23.6-24.73 21.65-21 18.6-15.15L18.6-15.15ZM42.65-30.1L50.65-30.1Q51.95-30.1 53.32-29.55 54.7-29 56-28.15L56-28.15 55.95-28.15Q57.25-27.2 57.95-25.68 58.65-24.15 58.65-22.15L58.65-22.15 58.65-7.95Q58.65-3.85 55.95-1.9L55.95-1.9Q53.3 0 50.65 0L50.65 0 42.65 0Q41.35 0 40-0.45 38.65-0.9 37.35-1.9L37.35-1.9Q34.65-3.8 34.65-7.95L34.65-7.95 34.65-22.15Q34.65-24.15 35.35-25.68 36.05-27.2 37.35-28.15L37.35-28.15 37.3-28.15Q38.55-29 39.95-29.55 41.35-30.1 42.65-30.1L42.65-30.1ZM43.55-4.7L49.75-4.7Q51.6-4.7 52.37-5.75 53.15-6.8 53.15-8L53.15-8 53.15-22.1Q53.15-23.35 52.37-24.38 51.6-25.4 49.75-25.4L49.75-25.4 43.55-25.4Q41.7-25.4 40.92-24.38 40.15-23.35 40.15-22.1L40.15-22.1 40.15-8Q40.15-6.8 40.92-5.75 41.7-4.7 43.55-4.7L43.55-4.7ZM89-28L89-7.95Q89-5.95 88.3-4.4 87.59-2.85 86.3-1.9L86.3-1.9 86.34-1.9Q85.09-1.05 83.7-0.53 82.3 0 81 0L81 0 72.95 0Q71.7 0 70.27-0.53 68.84-1.05 67.59-1.9L67.59-1.9 67.65-1.9Q66.34-2.85 65.65-4.4 64.95-5.95 64.95-7.95L64.95-7.95 64.95-28Q64.95-30.4 67.7-30.4L67.7-30.4Q70.45-30.4 70.45-28L70.45-28 70.45-8.35Q70.45-6.95 71.15-5.9L71.15-5.9Q71.8-4.7 73.84-4.7L73.84-4.7 80.09-4.7Q82.09-4.7 82.75-5.9L82.75-5.9 82.7-5.85Q83.5-7.05 83.5-8.35L83.5-8.35 83.5-28Q83.5-30.4 86.25-30.4L86.25-30.4Q89-30.4 89-28L89-28ZM109.04-34.65L109.04-2Q109.04 0.4 106.04 0.4L106.04 0.4Q103.09 0.4 103.09-2L103.09-2 103.09-34.65 94.34-34.65Q92.54-34.65 92.44-37.2L92.44-37.2Q92.44-39.7 94.34-39.7L94.34-39.7 117.79-39.7Q119.69-39.7 119.59-37.2L119.59-37.2Q119.59-34.65 117.79-34.65L117.79-34.65 109.04-34.65ZM147.64-28L147.64-7.95Q147.64-5.95 146.94-4.4 146.24-2.85 144.94-1.9L144.94-1.9 144.99-1.9Q143.74-1.05 142.34-0.53 140.94 0 139.64 0L139.64 0 131.59 0Q130.34 0 128.92-0.53 127.49-1.05 126.24-1.9L126.24-1.9 126.29-1.9Q124.99-2.85 124.29-4.4 123.59-5.95 123.59-7.95L123.59-7.95 123.59-28Q123.59-30.4 126.34-30.4L126.34-30.4Q129.09-30.4 129.09-28L129.09-28 129.09-8.35Q129.09-6.95 129.79-5.9L129.79-5.9Q130.44-4.7 132.49-4.7L132.49-4.7 138.74-4.7Q140.74-4.7 141.39-5.9L141.39-5.9 141.34-5.85Q142.14-7.05 142.14-8.35L142.14-8.35 142.14-28Q142.14-30.4 144.89-30.4L144.89-30.4Q147.64-30.4 147.64-28L147.64-28ZM159.39-25.4L159.34-2.1Q159.34-0.9 158.49-0.3 157.64 0.3 156.64 0.3L156.64 0.3Q153.89 0.3 153.89-2.1L153.89-2.1 153.89-37.6Q153.89-40 156.64-40L156.64-40Q159.39-40 159.39-37.6L159.39-37.6 159.39-30.1 169.94-30.1Q172.49-30.1 175.24-28.2L175.24-28.2Q177.94-26.3 177.94-22.2L177.94-22.2 177.94-7.3Q177.94-3.15 175.49-1.6L175.49-1.6Q173.04 0 169.89 0L169.89 0 163.99 0Q162.19 0 162.09-2.35L162.09-2.35Q162.09-4.7 163.99-4.7L163.99-4.7 168.99-4.7Q170.84-4.7 171.64-5.38 172.44-6.05 172.44-7.35L172.44-7.35 172.44-21.75Q172.44-23.05 171.64-24.25L171.64-24.25 171.69-24.2Q171.04-25.4 169.04-25.4L169.04-25.4 159.39-25.4ZM189.59-22.15L189.59-8Q189.59-6.8 190.36-5.75 191.14-4.7 192.99-4.7L192.99-4.7 199.24-4.7Q201.09-4.7 201.86-5.63 202.64-6.55 202.64-7.75L202.64-7.75 202.64-8.3Q202.64-10.65 205.39-10.65L205.39-10.65Q208.14-10.65 208.14-8.3L208.14-8.3 208.14-7.7Q208.14-5.6 207.46-4.25 206.79-2.9 205.44-1.9L205.44-1.9Q202.79 0 200.14 0L200.14 0 191.74 0Q189.09 0 186.59-1.9L186.59-1.9Q185.39-2.9 184.74-4.42 184.09-5.95 184.09-7.95L184.09-7.95 184.09-22.2Q184.09-26.25 186.59-28.2L186.59-28.2Q187.84-29.1 189.16-29.63 190.49-30.15 191.74-30.15L191.74-30.15 200.14-30.15Q201.34-30.15 202.79-29.68 204.24-29.2 205.49-28.4L205.49-28.4Q206.69-27.55 207.41-26.05 208.14-24.55 208.14-22.5L208.14-22.5 208.14-15.75Q208.14-14.6 207.46-13.7 206.79-12.8 204.99-12.8L204.99-12.8 194.19-12.8Q192.39-12.8 192.29-15.15L192.29-15.15Q192.29-17.5 194.19-17.5L194.19-17.5 202.69-17.5 202.64-22.15Q202.64-23.4 201.86-24.43 201.09-25.45 199.24-25.45L199.24-25.45 192.99-25.45Q191.14-25.45 190.36-24.43 189.59-23.4 189.59-22.15L189.59-22.15ZM240.18-25.4L236.03-25.4 236.03-7.2Q236.03-5.9 236.58-5.2 237.13-4.5 238.93-4.5L238.93-4.5 240.23-4.5Q242.18-4.5 242.08-2.2L242.08-2.2Q242.08 0.15 240.23 0.15L240.23 0.15 238.58 0.15Q236.98 0.15 235.58-0.28 234.18-0.7 232.88-1.5L232.88-1.5 232.88-1.45Q230.43-3.05 230.43-7.15L230.43-7.15 230.43-25.4 228.48-25.4Q226.68-25.4 226.58-27.75L226.58-27.75Q226.58-30.1 228.48-30.1L228.48-30.1 230.43-30.1 230.43-35.45Q230.43-37.85 233.28-37.85L233.28-37.85Q236.03-37.85 236.03-35.45L236.03-35.45 236.03-30.1 240.18-30.1Q242.13-30.1 242.03-27.75L242.03-27.75Q242.03-25.4 240.18-25.4L240.18-25.4ZM251.93-25.4L251.93-2.1Q251.93 0.3 249.18 0.3L249.18 0.3Q246.43 0.3 246.43-2.1L246.43-2.1 246.43-37.6Q246.43-40 249.18-40L249.18-40Q251.93-40 251.93-37.6L251.93-37.6 251.93-30.1 262.48-30.1Q265.03-30.1 267.78-28.2L267.78-28.2Q270.48-26.3 270.48-22.2L270.48-22.2 270.48-2.1Q270.48 0.3 267.73 0.3L267.73 0.3Q264.98 0.3 264.98-2.1L264.98-2.1 264.98-21.75Q264.98-23.05 264.18-24.25L264.18-24.25 264.23-24.2Q263.58-25.4 261.58-25.4L261.58-25.4 251.93-25.4ZM301.13-28L301.13-7.95Q301.13-5.95 300.43-4.4 299.73-2.85 298.43-1.9L298.43-1.9 298.48-1.9Q297.23-1.05 295.83-0.53 294.43 0 293.13 0L293.13 0 285.08 0Q283.83 0 282.4-0.53 280.98-1.05 279.73-1.9L279.73-1.9 279.78-1.9Q278.48-2.85 277.78-4.4 277.08-5.95 277.08-7.95L277.08-7.95 277.08-28Q277.08-30.4 279.83-30.4L279.83-30.4Q282.58-30.4 282.58-28L282.58-28 282.58-8.35Q282.58-6.95 283.28-5.9L283.28-5.9Q283.93-4.7 285.98-4.7L285.98-4.7 292.23-4.7Q294.23-4.7 294.88-5.9L294.88-5.9 294.83-5.85Q295.63-7.05 295.63-8.35L295.63-8.35 295.63-28Q295.63-30.4 298.38-30.4L298.38-30.4Q301.13-30.4 301.13-28L301.13-28ZM322.87-1.95L322.87-21.75Q322.87-22.4 322.67-23.03 322.47-23.65 322.17-24.2L322.17-24.2Q321.52-25.4 319.47-25.4L319.47-25.4 316.27-25.4Q314.22-25.4 313.52-24.2L313.52-24.2Q312.92-23.05 312.92-21.75L312.92-21.75 312.92-1.95Q312.92 0.4 310.17 0.4L310.17 0.4Q307.32 0.4 307.32-1.95L307.32-1.95 307.32-22.2Q307.32-26.3 310.02-28.2L310.02-28.2Q312.77-30.1 315.37-30.1L315.37-30.1 320.42-30.1Q321.57-30.1 322.97-29.65 324.37-29.2 325.67-28.25L325.67-28.25Q326.92-29.2 328.3-29.65 329.67-30.1 330.92-30.1L330.92-30.1 335.92-30.1Q338.57-30.1 341.22-28.2L341.22-28.2Q343.97-26.35 343.97-22.2L343.97-22.2 343.97-1.95Q343.97 0.4 341.17 0.4L341.17 0.4Q338.37 0.4 338.37-1.95L338.37-1.95 338.37-21.75Q338.37-22.4 338.22-23.05 338.07-23.7 337.67-24.25L337.67-24.25 337.72-24.2Q337.32-24.85 336.72-25.13 336.12-25.4 334.97-25.4L334.97-25.4 331.82-25.4Q329.72-25.4 329.07-24.2L329.07-24.2Q328.42-23.1 328.42-21.75L328.42-21.75 328.42-1.95Q328.42 0.4 325.67 0.4L325.67 0.4Q322.87 0.4 322.87-1.95L322.87-1.95ZM355.57-25.4L355.52-2.1Q355.52-0.9 354.67-0.3 353.82 0.3 352.82 0.3L352.82 0.3Q350.07 0.3 350.07-2.1L350.07-2.1 350.07-37.6Q350.07-40 352.82-40L352.82-40Q355.57-40 355.57-37.6L355.57-37.6 355.57-30.1 366.12-30.1Q368.67-30.1 371.42-28.2L371.42-28.2Q374.12-26.3 374.12-22.2L374.12-22.2 374.12-7.3Q374.12-3.15 371.67-1.6L371.67-1.6Q369.22 0 366.07 0L366.07 0 360.17 0Q358.37 0 358.27-2.35L358.27-2.35Q358.27-4.7 360.17-4.7L360.17-4.7 365.17-4.7Q367.02-4.7 367.82-5.38 368.62-6.05 368.62-7.35L368.62-7.35 368.62-21.75Q368.62-23.05 367.82-24.25L367.82-24.25 367.87-24.2Q367.22-25.4 365.22-25.4L365.22-25.4 355.57-25.4ZM385.77-21.75L385.77-2.1Q385.77 0.3 383.02 0.3L383.02 0.3Q380.27 0.3 380.27-2.1L380.27-2.1 380.27-22.2Q380.27-24.25 380.92-25.75 381.57-27.25 382.97-28.2L382.97-28.2Q385.62-30.1 388.27-30.1L388.27-30.1 396.32-30.1Q398.87-30.1 401.62-28.2L401.62-28.2Q404.32-26.3 404.32-22.2L404.32-22.2 404.32-2.1Q404.32 0.3 401.57 0.3L401.57 0.3Q398.82 0.3 398.82-2.1L398.82-2.1 398.82-21.75Q398.82-23.05 398.02-24.25L398.02-24.25 398.07-24.2Q397.42-25.4 395.42-25.4L395.42-25.4 389.17-25.4Q387.12-25.4 386.47-24.2L386.47-24.2Q385.77-23.15 385.77-21.75L385.77-21.75ZM424.87 0L418.32 0Q416.77 0 415.37-0.43 413.97-0.85 412.67-1.65L412.67-1.65 412.67-1.6Q410.22-3.15 410.22-7.3L410.22-7.3 410.22-9.75Q410.22-11.8 410.94-13.33 411.67-14.85 412.97-15.75L412.97-15.75 412.92-15.75Q414.17-16.6 415.57-17.03 416.97-17.45 418.27-17.45L418.27-17.45 429.32-17.45 429.32-22.1Q429.32-23.35 428.54-24.38 427.77-25.4 425.92-25.4L425.92-25.4 420.07-25.4Q418.17-25.4 417.44-24.48 416.72-23.55 416.72-22.3L416.72-22.3 416.72-21.9Q416.72-19.3 413.92-19.3L413.92-19.3Q411.12-19.3 411.12-21.9L411.12-21.9 411.12-22.35Q411.12-24.4 411.84-25.8 412.57-27.2 413.82-28.15L413.82-28.15 413.77-28.15Q415.07-29 416.49-29.55 417.92-30.1 419.22-30.1L419.22-30.1 426.82-30.1Q428.07-30.1 429.49-29.55 430.92-29 432.17-28.15L432.17-28.15 432.12-28.15Q433.42-27.2 434.12-25.68 434.82-24.15 434.82-22.15L434.82-22.15 434.82-2.1Q434.82 0.3 432.07 0.3L432.07 0.3Q431.52 0.3 431.04 0.25 430.57 0.2 430.19-0.03 429.82-0.25 429.59-0.68 429.37-1.1 429.37-1.8L429.37-1.8 429.32-12.75 419.22-12.75Q418.12-12.75 417.52-12.5 416.92-12.25 416.57-11.7L416.57-11.7Q416.17-10.85 415.99-10.38 415.82-9.9 415.82-9.3L415.82-9.3 415.82-7.35Q415.82-6.05 416.59-5.38 417.37-4.7 419.27-4.7L419.27-4.7 424.87-4.7Q426.72-4.7 426.72-2.35L426.72-2.35Q426.72-1.35 426.27-0.68 425.82 0 424.87 0L424.87 0ZM446.91-27.9L446.91-2.1Q446.91 0.3 444.16 0.3L444.16 0.3Q441.36 0.3 441.36-2.1L441.36-2.1 441.36-27.9Q441.36-30.3 444.16-30.3L444.16-30.3Q446.91-30.3 446.91-27.9L446.91-27.9ZM447.96-36.6L447.96-36.6Q447.96-35 446.86-33.9 445.76-32.8 444.16-32.8L444.16-32.8Q442.56-32.8 441.44-33.9 440.31-35 440.31-36.6L440.31-36.6Q440.31-38.25 441.44-39.35 442.56-40.45 444.16-40.45L444.16-40.45Q445.76-40.45 446.86-39.35 447.96-38.25 447.96-36.6ZM459.56-37.8L459.56-1.95Q459.56 0.4 456.81 0.4L456.81 0.4Q454.01 0.4 454.01-1.95L454.01-1.95 454.01-37.8Q454.01-40.15 456.81-40.15L456.81-40.15Q459.56-40.15 459.56-37.8L459.56-37.8ZM475.36-17.5L482.71-17.5Q483.96-17.5 485.38-16.93 486.81-16.35 488.06-15.5L488.06-15.5 488.01-15.5Q489.31-14.55 490.01-13.05 490.71-11.55 490.71-9.45L490.71-9.45 490.71-7.95Q490.71-3.85 488.01-1.9L488.01-1.9Q486.71-0.9 485.36-0.45 484.01 0 482.71 0L482.71 0 474.21 0Q472.91 0 471.56-0.45 470.21-0.9 468.91-1.9L468.91-1.9Q466.21-3.8 466.21-7.95L466.21-7.95 466.21-8.55Q466.21-10.7 468.96-10.65L468.96-10.65Q471.76-10.65 471.76-8.55L471.76-8.55 471.76-8Q471.76-6.8 472.51-5.75 473.26-4.7 475.16-4.7L475.16-4.7 481.76-4.7Q483.66-4.7 484.41-5.75 485.16-6.8 485.16-8L485.16-8 485.16-9.4Q485.16-10.05 484.98-10.65 484.81-11.25 484.41-11.73 484.01-12.2 483.36-12.5 482.71-12.8 481.76-12.8L481.76-12.8 474.46-12.8Q471.91-12.8 469.11-14.6L469.11-14.6Q466.46-16.3 466.46-20.45L466.46-20.45 466.46-22.15Q466.46-24.15 467.16-25.68 467.86-27.2 469.16-28.15L469.16-28.15 469.11-28.15Q470.36-29 471.76-29.55 473.16-30.1 474.46-30.1L474.46-30.1 482.46-30.1Q483.76-30.1 485.13-29.55 486.51-29 487.81-28.15L487.81-28.15 487.76-28.15Q489.06-27.2 489.76-25.68 490.46-24.15 490.46-22.15L490.46-22.15 490.46-21.7Q490.46-20.65 489.76-20.18 489.06-19.7 487.71-19.65L487.71-19.65Q484.96-19.6 484.96-21.7L484.96-21.7 484.96-22.1Q484.96-23.35 484.18-24.38 483.41-25.4 481.56-25.4L481.56-25.4 475.36-25.4Q473.51-25.4 472.73-24.38 471.96-23.35 471.96-22.1L471.96-22.1 471.96-20.9Q471.96-19.6 472.73-18.55 473.51-17.5 475.36-17.5L475.36-17.5ZM526.25-15.6L522.7-1.55 522.75-1.6Q522.4-0.45 521.4-0.1 520.4 0.25 519.4 0.25L519.4 0.25Q518.45 0.25 517.43-0.1 516.4-0.45 516.1-1.6L516.1-1.6 516.15-1.55 509.6-27.45Q509-29.55 511.55-30.25L511.55-30.25Q514-30.9 514.7-28.55L514.7-28.55 514.7-28.6 518.75-12.3 520.1-12.3 524.15-28.6Q524.4-29.65 525.28-29.98 526.15-30.3 526.9-30.3L526.9-30.3Q527.75-30.3 528.58-29.93 529.4-29.55 529.7-28.6L529.7-28.6Q530.15-26.8 530.53-25.25 530.9-23.7 531.25-22.25 531.6-20.8 531.93-19.4 532.25-18 532.65-16.5L532.65-16.5 533.75-12.25 535.1-12.25Q536.1-16.3 537.13-20.43 538.15-24.55 539.15-28.6L539.15-28.6 539.1-28.55Q539.8-30.9 542.25-30.25L542.25-30.25Q544.8-29.65 544.2-27.45L544.2-27.45 537.7-1.55 537.75-1.6Q537.45-0.45 536.43-0.1 535.4 0.25 534.4 0.25L534.4 0.25Q533.45 0.25 532.45-0.1 531.45-0.45 531.1-1.6L531.1-1.6 531.15-1.55 527.6-15.6 526.25-15.6ZM553.75-27.9L553.75-2.1Q553.75 0.3 551 0.3L551 0.3Q548.2 0.3 548.2-2.1L548.2-2.1 548.2-27.9Q548.2-30.3 551-30.3L551-30.3Q553.75-30.3 553.75-27.9L553.75-27.9ZM554.8-36.6L554.8-36.6Q554.8-35 553.7-33.9 552.6-32.8 551-32.8L551-32.8Q549.4-32.8 548.28-33.9 547.15-35 547.15-36.6L547.15-36.6Q547.15-38.25 548.28-39.35 549.4-40.45 551-40.45L551-40.45Q552.6-40.45 553.7-39.35 554.8-38.25 554.8-36.6ZM571.4-25.4L567.25-25.4 567.25-7.2Q567.25-5.9 567.8-5.2 568.35-4.5 570.15-4.5L570.15-4.5 571.45-4.5Q573.4-4.5 573.3-2.2L573.3-2.2Q573.3 0.15 571.45 0.15L571.45 0.15 569.8 0.15Q568.2 0.15 566.8-0.28 565.4-0.7 564.1-1.5L564.1-1.5 564.1-1.45Q561.65-3.05 561.65-7.15L561.65-7.15 561.65-25.4 559.7-25.4Q557.9-25.4 557.8-27.75L557.8-27.75Q557.8-30.1 559.7-30.1L559.7-30.1 561.65-30.1 561.65-35.45Q561.65-37.85 564.5-37.85L564.5-37.85Q567.25-37.85 567.25-35.45L567.25-35.45 567.25-30.1 571.4-30.1Q573.35-30.1 573.25-27.75L573.25-27.75Q573.25-25.4 571.4-25.4L571.4-25.4ZM583.14-25.4L583.14-2.1Q583.14 0.3 580.39 0.3L580.39 0.3Q577.64 0.3 577.64-2.1L577.64-2.1 577.64-37.6Q577.64-40 580.39-40L580.39-40Q583.14-40 583.14-37.6L583.14-37.6 583.14-30.1 593.7-30.1Q596.25-30.1 599-28.2L599-28.2Q601.7-26.3 601.7-22.2L601.7-22.2 601.7-2.1Q601.7 0.3 598.95 0.3L598.95 0.3Q596.2 0.3 596.2-2.1L596.2-2.1 596.2-21.75Q596.2-23.05 595.39-24.25L595.39-24.25 595.45-24.2Q594.8-25.4 592.8-25.4L592.8-25.4 583.14-25.4ZM647.89-1.2L636.89-34.8 625.94-1.2 625.94-1.25Q625.64-0.5 625.11-0.03 624.59 0.45 623.84 0.45L623.84 0.45Q623.44 0.45 623.06 0.38 622.69 0.3 622.29 0.2L622.29 0.2 622.34 0.2Q619.49-0.7 620.24-3L620.24-3 631.64-37.65Q631.89-38.45 632.51-39 633.14-39.55 633.99-39.65L633.99-39.65Q634.84-39.8 635.64-39.88 636.44-39.95 636.89-39.95L636.89-39.95Q637.34-39.95 638.14-39.88 638.94-39.8 639.79-39.7L639.79-39.7Q640.49-39.6 641.16-38.95 641.84-38.3 642.19-37.65L642.19-37.65Q644.99-29.05 647.86-20.33 650.74-11.6 653.54-3L653.54-3Q654.24-0.7 651.44 0.2L651.44 0.2Q651.04 0.3 650.71 0.38 650.39 0.45 649.99 0.45L649.99 0.45Q649.29 0.45 648.71-0.03 648.14-0.5 647.89-1.25L647.89-1.25 647.89-1.2ZM640.64-12L640.64-12Q640.64-10.4 639.51-9.28 638.39-8.15 636.79-8.15L636.79-8.15Q635.19-8.15 634.09-9.28 632.99-10.4 632.99-12L632.99-12Q632.99-13.6 634.09-14.73 635.19-15.85 636.79-15.85L636.79-15.85Q638.39-15.85 639.51-14.73 640.64-13.6 640.64-12ZM664.19-37.55L664.19-2.1Q664.19 0.3 661.19 0.3L661.19 0.3Q658.24 0.3 658.24-2.1L658.24-2.1 658.24-37.55Q658.24-39.95 661.19-39.95L661.19-39.95Q664.19-39.95 664.19-37.55L664.19-37.55Z" opacity="1" transform="matrix(1,0,0,1,0,0)" fill="#ed1703" class="undefined-text-1" data-fill-palette-color="secondary" id="text-1"></path></svg></g></svg></g></svg></g></svg></g><g transform="matrix(1,0,0,1,55.38548364606934,0)"><svg viewBox="0 0 81.22903270786132 59.7222033085973" height="59.7222033085973" width="81.22903270786132"><g><svg xmlns="http://www.w3.org/2000/svg" xmlns:xlink="http://www.w3.org/1999/xlink" version="1.1" x="0" y="0" viewBox="9.88800048828125 20.507999420166016 80.2249984741211 58.984004974365234" enable-background="new 0 0 100 100" xml:space="preserve" height="59.7222033085973" width="81.22903270786132" class="icon-icon-0" data-fill-palette-color="accent" id="icon-0"><g fill="#ed1703" data-fill-palette-color="accent"><path d="M82.112 20.508H17.888c-4.418 0-8 3.582-8 8v42.984c0 4.418 3.582 8 8 8h64.225c4.418 0 8-3.582 8-8V28.508C90.112 24.089 86.53 20.508 82.112 20.508zM82.112 71.492H17.888V28.508h64.225V71.492z" fill="#ed1703" data-fill-palette-color="accent"></path><path d="M37.627 66.596c0.619 0.357 1.309 0.536 2 0.536 0.69 0 1.381-0.179 2-0.536l22.746-13.132c1.238-0.714 2-2.035 2-3.464 0-1.429-0.762-2.75-2-3.464L41.627 33.404c-1.237-0.715-2.763-0.715-4 0-1.238 0.714-2 2.035-2 3.464v26.264C35.627 64.561 36.389 65.882 37.627 66.596zM43.627 43.796L54.373 50l-10.746 6.204V43.796z" fill="#ed1703" data-fill-palette-color="accent"></path></g></svg></g></svg></g><g></g></svg></g></svg></g></svg></g></svg></g><defs></defs></svg><rect width="320" height="360" fill="none" stroke="none" visibility="hidden"></rect></g></svg></g></svg>